HIERARCHY
ROOT hip
{
  OFFSET 0 0 0
  CHANNELS 6 Xposition Yposition Zposition Zrotation Yrotation Xrotation
  JOINT abdomen
  {
    OFFSET 0 20.6881 -0.73152
    CHANNELS 3 Zrotation Xrotation Yrotation
    JOINT chest
    {
      OFFSET 0 11.7043 -0.48768
      CHANNELS 3 Zrotation Xrotation Yrotation
      JOINT neck
      {
        OFFSET 0 22.1894 -2.19456
        CHANNELS 3 Zrotation Xrotation Yrotation
        JOINT head
        {
          OFFSET -0.24384 7.07133 1.2192
          CHANNELS 3 Zrotation Xrotation Yrotation
          JOINT leftEye
          {
            OFFSET 4.14528 8.04674 8.04672
            CHANNELS 3 Zrotation Xrotation Yrotation
            End Site
            {
              OFFSET 1 0 0
            }
          }
          JOINT rightEye
          {
            OFFSET -3.6576 8.04674 8.04672
            CHANNELS 3 Zrotation Xrotation Yrotation
            End Site
            {
              OFFSET 1 0 0
            }
          }
        }
      }
      JOINT rCollar
      {
        OFFSET -2.68224 19.2634 -4.8768
        CHANNELS 3 Zrotation Xrotation Yrotation
        JOINT rShldr
        {
          OFFSET -8.77824 -1.95073 1.46304
          CHANNELS 3 Zrotation Xrotation Yrotation
          JOINT rForeArm
          {
            OFFSET -28.1742 -1.7115 0.48768
            CHANNELS 3 Zrotation Xrotation Yrotation
            JOINT rHand
            {
              OFFSET -22.5879 0.773209 7.07136
              CHANNELS 3 Zrotation Xrotation Yrotation
              JOINT rThumb1
              {
                OFFSET -1.2192 -0.487915 3.41376
                CHANNELS 3 Zrotation Xrotation Yrotation
                JOINT rThumb2
                {
                  OFFSET -3.37035 -0.52449 3.41376
                  CHANNELS 3 Zrotation Xrotation Yrotation
                  End Site
                  {
                    OFFSET -1.78271 -1.18214 1.43049
                  }
                }
              }
              JOINT rIndex1
              {
                OFFSET -7.75947 0.938293 5.60832
                CHANNELS 3 Zrotation Xrotation Yrotation
                JOINT rIndex2
                {
                  OFFSET -2.54057 -0.884171 1.56538
                  CHANNELS 3 Zrotation Xrotation Yrotation
                  End Site
                  {
                    OFFSET -1.62519 -0.234802 1.16502
                  }
                }
              }
              JOINT rMid1
              {
                OFFSET -8.24714 1.18213 3.41376
                CHANNELS 3 Zrotation Xrotation Yrotation
                JOINT rMid2
                {
                  OFFSET -3.10165 -0.590103 1.0647
                  CHANNELS 3 Zrotation Xrotation Yrotation
                  End Site
                  {
                    OFFSET -2.48547 -0.328903 0.83742
                  }
                }
              }
              JOINT rRing1
              {
                OFFSET -8.82822 0.546677 1.51678
                CHANNELS 3 Zrotation Xrotation Yrotation
                JOINT rRing2
                {
                  OFFSET -2.60934 -0.819778 -0.0198488
                  CHANNELS 3 Zrotation Xrotation Yrotation
                  End Site
                  {
                    OFFSET -2.33842 -0.294052 0.168128
                  }
                }
              }
              JOINT rPinky1
              {
                OFFSET -8.27202 -0.0477905 -0.4584
                CHANNELS 3 Zrotation Xrotation Yrotation
                JOINT rPinky2
                {
                  OFFSET -1.82734 -0.647385 -0.700984
                  CHANNELS 3 Zrotation Xrotation Yrotation
                  End Site
                  {
                    OFFSET -1.69225 -0.51767 -0.607171
                  }
                }
              }
            }
          }
        }
      }
      JOINT lCollar
      {
        OFFSET 2.68224 19.2634 -4.8768
        CHANNELS 3 Zrotation Xrotation Yrotation
        JOINT lShldr
        {
          OFFSET 8.77824 -1.95073 1.46304
          CHANNELS 3 Zrotation Xrotation Yrotation
          JOINT lForeArm
          {
            OFFSET 28.1742 -1.7115 0.48768
            CHANNELS 3 Zrotation Xrotation Yrotation
            JOINT lHand
            {
              OFFSET 22.5879 0.773209 7.07136
              CHANNELS 3 Zrotation Xrotation Yrotation
              JOINT lThumb1
              {
                OFFSET 1.2192 -0.487915 3.41376
                CHANNELS 3 Zrotation Xrotation Yrotation
                JOINT lThumb2
                {
                  OFFSET 3.37035 -0.52449 3.41376
                  CHANNELS 3 Zrotation Xrotation Yrotation
                  End Site
                  {
                    OFFSET 1.78271 -1.18214 1.43049
                  }
                }
              }
              JOINT lIndex1
              {
                OFFSET 7.75947 0.938293 5.60832
                CHANNELS 3 Zrotation Xrotation Yrotation
                JOINT lIndex2
                {
                  OFFSET 2.54057 -0.884171 1.56538
                  CHANNELS 3 Zrotation Xrotation Yrotation
                  End Site
                  {
                    OFFSET 1.62519 -0.234802 1.16502
                  }
                }
              }
              JOINT lMid1
              {
                OFFSET 8.24714 1.18213 3.41376
                CHANNELS 3 Zrotation Xrotation Yrotation
                JOINT lMid2
                {
                  OFFSET 3.10165 -0.590103 1.0647
                  CHANNELS 3 Zrotation Xrotation Yrotation
                  End Site
                  {
                    OFFSET 2.48547 -0.328903 0.83742
                  }
                }
              }
              JOINT lRing1
              {
                OFFSET 8.82822 0.546677 1.51678
                CHANNELS 3 Zrotation Xrotation Yrotation
                JOINT lRing2
                {
                  OFFSET 2.60934 -0.819778 -0.0198488
                  CHANNELS 3 Zrotation Xrotation Yrotation
                  End Site
                  {
                    OFFSET 2.33842 -0.294052 0.168128
                  }
                }
              }
              JOINT lPinky1
              {
                OFFSET 8.27202 -0.0477905 -0.4584
                CHANNELS 3 Zrotation Xrotation Yrotation
                JOINT lPinky2
                {
                  OFFSET 1.82734 -0.647385 -0.700984
                  CHANNELS 3 Zrotation Xrotation Yrotation
                  End Site
                  {
                    OFFSET 1.69225 -0.51767 -0.607171
                  }
                }
              }
            }
          }
        }
      }
    }
  }
  JOINT rButtock
  {
    OFFSET -8.77824 4.35084 1.2192
    CHANNELS 3 Zrotation Xrotation Yrotation
    JOINT rThigh
    {
      OFFSET 0 -1.70687 -2.19456
      CHANNELS 3 Zrotation Xrotation Yrotation
      JOINT rShin
      {
        OFFSET 0 -36.8199 0.73152
        CHANNELS 3 Zrotation Xrotation Yrotation
        JOINT rFoot
        {
          OFFSET 0.73152 -45.1104 -5.12064
          CHANNELS 3 Zrotation Xrotation Yrotation
          End Site
          {
            OFFSET -1.1221 -3.69964 12.103
          }
        }
      }
    }
  }
  JOINT lButtock
  {
    OFFSET 8.77824 4.35084 1.2192
    CHANNELS 3 Zrotation Xrotation Yrotation
    JOINT lThigh
    {
      OFFSET 0 -1.70687 -2.19456
      CHANNELS 3 Zrotation Xrotation Yrotation
      JOINT lShin
      {
        OFFSET 0 -36.8199 0.73152
        CHANNELS 3 Zrotation Xrotation Yrotation
        JOINT lFoot
        {
          OFFSET -0.73152 -45.1104 -5.12064
          CHANNELS 3 Zrotation Xrotation Yrotation
          End Site
          {
            OFFSET 1.1221 -3.69964 12.103
          }
        }
      }
    }
  }
}
MOTION
Frames:	4
Frame Time:	0.00833333
34.3555 82.6676 -22.0077 -4.6271 1.012 10.458 11.0428 8.21355 9.43768 -4.0979 -7.45213 2.39265 -6.94941 -10.4882 -5.3774 -2.64278 -6.44351 -7.70503 -0.0 0.0 0.0 -0.0 0.0 0.0 -4.03857e-14 -7.35406e-15 -1.56481e-14 81.087 47.6002 -15.6474 -24.509 -48.6702 101.619 4.02471e-05 -0.0166927 -0.00234406 -3.7089e-11 -1.24159e-10 1.7168e-11 -6.23993e-11 -2.06607e-10 2.91635e-11 -3.70916e-11 -1.24166e-10 1.71623e-11 7.73091 5.47488 0.417314 -3.70958e-11 -1.24168e-10 1.71683e-11 2.90554 0.965183 0.102902 -3.70843e-11 -1.24151e-10 1.71684e-11 10.2786 0.731801 0.0259123 -3.70857e-11 -1.24155e-10 1.71742e-11 2.22167 -0.733487 -0.20892 -4.04478e-14 -7.35583e-15 -1.59276e-14 -110.502 32.6579 58.861 27.5598 -42.3209 -88.1666 0.629733 -21.9455 3.24628 -1.34391e-10 -3.13474e-10 -4.65363e-10 -2.24395e-10 -5.26645e-10 -8.09677e-10 -1.344e-10 -3.13474e-10 -4.65351e-10 -7.73091 5.47488 -0.417314 -1.34392e-10 -3.13475e-10 -4.65355e-10 -2.90554 0.965183 -0.102902 -1.344e-10 -3.13475e-10 -4.65365e-10 -10.2786 0.731801 -0.0259123 -1.3439e-10 -3.13475e-10 -4.65369e-10 -2.22167 -0.733487 0.20892 -2.03217e-16 0.0 -3.88251e-19 10.7505 12.2621 5.68433 -0.327981 33.8055 0.0431696 5.60684 27.0952 -17.4432 2.03217e-16 0.0 3.88251e-19 19.0222 -59.7309 -5.74392 0.491933 40.2037 0.281299 0.453788 12.4489 -3.79917
34.233 82.2989 -18.8036 -4.6799 0.5722 10.1578 10.7308 8.44901 9.65965 -4.08872 -7.24046 2.44357 -6.9573 -10.4352 -5.43565 -2.04821 -6.35888 -7.7884 -0.0 0.0 0.0 -0.0 0.0 0.0 -8.05311e-14 1.2597e-14 1.08602e-14 82.13 47.5185 -16.2075 -24.7111 -48.3837 100.937 -2.27555e-05 -0.264138 -0.0371216 -2.64368e-10 -1.97161e-10 -1.54369e-10 -4.56016e-10 -3.33859e-10 -2.67682e-10 -2.64371e-10 -1.97159e-10 -1.54375e-10 7.73091 5.47488 0.417314 -2.64378e-10 -1.97177e-10 -1.54364e-10 2.90554 0.965183 0.102902 -2.64365e-10 -1.97153e-10 -1.54367e-10 10.2786 0.731801 0.0259123 -2.64366e-10 -1.97157e-10 -1.54358e-10 2.22167 -0.733487 -0.20892 -8.06047e-14 1.2599e-14 1.04968e-14 -110.044 32.8046 58.8223 27.4313 -42.7539 -88.9977 0.632525 -21.9923 3.2539 -3.07943e-10 -9.0728e-10 -6.49449e-10 -5.22064e-10 -1.54741e-09 -1.13061e-09 -3.07954e-10 -9.07283e-10 -6.49438e-10 -7.73091 5.47488 -0.417314 -3.07943e-10 -9.0728e-10 -6.49437e-10 -2.90554 0.965183 -0.102902 -3.07951e-10 -9.0728e-10 -6.49448e-10 -10.2786 0.731801 -0.0259123 -3.07941e-10 -9.0728e-10 -6.49451e-10 -2.22167 -0.733487 0.20892 -2.03217e-16 0.0 -3.88251e-19 11.3805 10.9723 6.62527 -0.406112 38.3176 0.137835 5.16564 26.4019 -17.1461 2.03217e-16 0.0 3.88251e-19 19.3698 -59.0742 -6.62995 0.497285 40.1754 0.341307 0.411331 12.5865 -3.91147
34.1131 81.8626 -15.5892 -4.6525 0.1451 9.8003 10.112 8.73048 9.79588 -4.00571 -7.04239 2.46714 -6.97495 -10.3213 -5.48502 -1.50759 -6.3673 -7.86046 -0.0 0.0 0.0 -0.0 0.0 0.0 -9.65765e-14 2.38518e-14 2.40529e-14 83.3061 47.3356 -16.8838 -24.9999 -47.9922 99.9457 -0.000276535 -0.474833 -0.066735 -3.94958e-10 -8.20192e-10 -1.42463e-10 -6.8235e-10 -1.41321e-09 -2.47023e-10 -3.94961e-10 -8.20185e-10 -1.4247e-10 7.73091 5.47488 0.417314 -3.94969e-10 -8.20211e-10 -1.42457e-10 2.90554 0.965183 0.102902 -3.94955e-10 -8.20184e-10 -1.4246e-10 10.2786 0.731801 0.0259123 -3.94956e-10 -8.20188e-10 -1.42451e-10 2.22167 -0.733487 -0.20892 -9.66486e-14 2.38565e-14 2.36554e-14 -109.515 33.1283 58.615 27.3048 -43.1407 -89.7603 0.63059 -21.9623 3.24897 -3.93844e-10 -1.17324e-09 -7.4606e-10 -6.69084e-10 -2.00339e-09 -1.29904e-09 -3.93856e-10 -1.17324e-09 -7.4605e-10 -7.73091 5.47488 -0.417314 -3.93842e-10 -1.17324e-09 -7.46047e-10 -2.90554 0.965183 -0.102902 -3.9385e-10 -1.17324e-09 -7.46058e-10 -10.2786 0.731801 -0.0259123 -3.93841e-10 -1.17324e-09 -7.4606e-10 -2.22167 -0.733487 0.20892 -2.03217e-16 0.0 -3.88251e-19 11.7766 9.57332 7.31396 -0.50507 42.9368 0.254744 4.73657 25.806 -16.7737 2.03217e-16 0.0 3.88251e-19 19.194 -58.2277 -7.67563 0.504869 40.222 0.391335 0.387351 12.7124 -4.22336
34.0426 81.3843 -12.3593 -4.3576 -0.2542 9.3448 9.08727 9.07165 9.83693 -3.82378 -6.85005 2.46035 -7.00874 -10.1206 -5.52879 -1.01887 -6.50826 -7.92811 -0.0 0.0 0.0 -0.0 0.0 0.0 -7.38788e-14 2.11056e-14 1.55902e-14 84.6683 47.0405 -17.7267 -25.3463 -47.4501 98.6978 -0.000606662 -0.613588 -0.0862392 -3.79326e-10 -2.45368e-09 1.71967e-10 -6.55704e-10 -4.24193e-09 2.97253e-10 -3.79328e-10 -2.45368e-09 1.7196e-10 7.73091 5.47488 0.417314 -3.79336e-10 -2.4537e-09 1.71972e-10 2.90554 0.965183 0.102902 -3.79322e-10 -2.45368e-09 1.7197e-10 10.2786 0.731801 0.0259123 -3.79325e-10 -2.45368e-09 1.71979e-10 2.22167 -0.733487 -0.20892 -7.39256e-14 2.11114e-14 1.52427e-14 -108.893 33.6547 58.2264 27.188 -43.4845 -90.4367 0.625775 -21.8785 3.23536 -3.40921e-10 -9.00225e-10 -7.13071e-10 -5.77275e-10 -1.53011e-09 -1.24145e-09 -3.40933e-10 -9.0023e-10 -7.13063e-10 -7.73091 5.47488 -0.417314 -3.4092e-10 -9.00225e-10 -7.13061e-10 -2.90554 0.965183 -0.102902 -3.40927e-10 -9.00225e-10 -7.1307e-10 -10.2786 0.731801 -0.0259123 -3.40918e-10 -9.00224e-10 -7.13073e-10 -2.22167 -0.733487 0.20892 -2.03217e-16 0.0 -3.88251e-19 11.8686 8.09617 7.73258 -0.634786 47.6891 0.404409 4.35625 25.4365 -16.3289 2.03217e-16 0.0 3.88251e-19 18.3021 -57.1546 -9.05975 0.511637 40.2186 0.434313 0.428778 13.2579 -4.84065
